<svg width="24" height="24" viewBox="0 0 24 24" fill="none" xmlns="http://www.w3.org/2000/svg">
    <mask id="pvrp198bia" style="mask-type:alpha" maskUnits="userSpaceOnUse" x="0" y="0" width="24" height="24">
        <path fill="#D9D9D9" d="M0 0h24v24H0z"/>
    </mask>
    <g mask="url(#pvrp198bia)">
        <path d="m12 13.05-5.075 5.075a.735.735 0 0 1-.512.212.69.69 0 0 1-.538-.212.72.72 0 0 1-.225-.525c0-.2.075-.375.225-.525L10.95 12 5.875 6.925a.737.737 0 0 1-.212-.513.69.69 0 0 1 .212-.537.72.72 0 0 1 .525-.225c.2 0 .375.075.525.225L12 10.95l5.075-5.075a.74.74 0 0 1 .513-.213.693.693 0 0 1 .537.213.72.72 0 0 1 .225.525.72.72 0 0 1-.225.525L13.05 12l5.075 5.075a.735.735 0 0 1 .212.512.69.69 0 0 1-.212.538.72.72 0 0 1-.525.225.72.72 0 0 1-.525-.225L12 13.05z" fill="#1C1B1F"/>
    </g>
</svg>
