<svg width="239" height="200" viewBox="0 0 239 200" fill="none" xmlns="http://www.w3.org/2000/svg">
    <g clip-path="url(#32eogn7s9a)">
        <path d="M11.105 190.579c3.316 6.163 10.352 8.809 10.352 8.809s1.66-7.347-1.655-13.51c-3.315-6.163-10.35-8.809-10.35-8.809s-1.662 7.347 1.653 13.51z" fill="#525252"/>
        <path d="M13.384 188.551c5.985 3.61 8.29 10.78 8.29 10.78s-7.398 1.317-13.384-2.292c-5.985-3.61-8.29-10.78-8.29-10.78s7.399-1.317 13.384 2.292z" fill="#000"/>
        <path d="M156.11 30.458h-.534v4.947h.534v-4.947zM189.452 42.49h-.533v4.947h.533V42.49zM185.718 166.559h-.533v4.947h.533v-4.947zM201.989 166.559h-.533v4.947h.533v-4.947zM193.454 125.649h-.534v4.946h.534v-4.946z" fill="#F2F2F2"/>
        <path d="M96.576 187.757h-63.16v-.455h62.706V165.21H38.725l-2.788-5.823.41-.197 2.664 5.564h57.565v23.003z" fill="#525252"/>
        <path d="M41.822 198.917a4.777 4.777 0 0 0 4.771-4.783 4.777 4.777 0 0 0-4.771-4.783 4.777 4.777 0 0 0-4.771 4.783 4.777 4.777 0 0 0 4.77 4.783zM88.852 198.917a4.777 4.777 0 0 0 4.77-4.783 4.777 4.777 0 0 0-4.77-4.783 4.777 4.777 0 0 0-4.772 4.783 4.777 4.777 0 0 0 4.772 4.783zM144.288 95.519a2.957 2.957 0 0 0 2.953-2.961 2.957 2.957 0 0 0-2.953-2.961 2.957 2.957 0 0 0-2.954 2.96 2.957 2.957 0 0 0 2.954 2.962z" fill="#7E7E7E"/>
        <path d="M103.332 157.694H32.339l-15.361-50.332H119.15l-.093.296-15.726 50.036zm-70.657-.455h70.323l15.534-49.422H17.592l15.083 49.422z" fill="#525252"/>
        <path d="M97.79 155.075H35.434l-13.492-44.639h89.743l-.082.263-13.813 44.376z" fill="#F2F2F2"/>
        <path d="m120.424 102.865-.439-.117 2.998-11.33h17.442v.457h-17.092l-2.909 10.99zM114.046 122.621H21.942v.455h92.104v-.455zM108.771 139.402H27.063v.456h81.708v-.456z" fill="#525252"/>
        <path d="M68.29 107.589h-.454v49.877h.454v-49.877zM88.634 107.575l-3.262 49.876.454.03 3.262-49.876-.454-.03zM47.501 107.574l-.453.03 3.243 49.877.453-.03-3.243-49.877zM239 199.205H0v.535h239v-.535z" fill="#525252"/>
        <path d="M158.82 16.545s3.9 11.125 1.5 12.837c-2.399 1.711 8.099 15.689 8.099 15.689l12.598-3.423-6.899-11.696s-.9-11.696-.9-13.407c0-1.712-14.398 0-14.398 0z" fill="#E4C09E"/>
        <path opacity=".1" d="M158.82 16.545s3.9 11.125 1.5 12.837c-2.399 1.711 8.099 15.689 8.099 15.689l12.598-3.423-6.899-11.696s-.9-11.696-.9-13.407c0-1.712-14.398 0-14.398 0z" fill="#000"/>
        <path d="M152.275 95.847s-1.138 14.263 0 21.68c1.139 7.416 2.846 27.955 2.846 27.955s0 38.795 6.261 39.366c6.26.57 10.813 1.141 11.382-1.141.569-2.282-2.845-3.423-1.138-4.564 1.707-1.141 2.276-5.135 0-9.699-2.277-4.564 0-50.776 0-50.776l10.813 29.096s1.139 23.962 2.277 27.385c1.138 3.423-1.138 9.699 2.846 10.269 3.984.571 8.537-2.852 10.813-3.993 2.277-1.141-3.415-1.141-2.276-1.712 1.138-.57 4.553-2.282 3.414-2.853-1.138-.57-2.276-27.955-2.276-27.955s-3.13-58.478-7.114-60.76c-3.984-2.282-6.545 1.649-6.545 1.649l-31.303 6.053z" fill="#888"/>
        <path d="M162.52 182.566v4.564s-5.122 12.407 0 12.407 9.106 1.285 9.106-.426v-15.404l-9.106-1.141zM196.099 182.558v4.564s5.122 12.406 0 12.406-9.106 1.286-9.106-.425v-15.404l9.106-1.141z" fill="#2F2E41"/>
        <path d="M166.788 24.818c5.658 0 10.245-4.598 10.245-10.27 0-5.671-4.587-10.27-10.245-10.27-5.657 0-10.244 4.599-10.244 10.27 0 5.672 4.587 10.27 10.244 10.27z" fill="#E4C09E"/>
        <path d="M163.658 33.66s2.846 8.558 7.399 6.847l4.553-1.712 7.968 54.77s-6.261 9.128-15.367 3.423c-9.106-5.705-4.553-63.328-4.553-63.328z" fill="#fff"/>
        <path d="m171.626 31.949 2.561-5.42s15.082 7.131 17.359 9.414c2.276 2.282 2.276 5.705 2.276 5.705l-3.984 14.263s1.139 31.378 1.139 32.52c0 1.14 3.983 7.416 1.138 5.134-2.846-2.282-3.415-4.564-5.692-1.141-2.276 3.423-7.398 7.417-7.398 7.417l-7.399-67.892z" fill="#343434"/>
        <path d="m191.546 73.026-1.708 15.975s-10.244 9.128-7.968 9.698c2.277.571 3.415-1.711 3.415-1.711s3.984 3.994 6.261 1.712c2.276-2.282 7.968-23.962 7.968-23.962l-7.968-1.712z" fill="#E4C09E"/>
        <path d="M167.007.035c-2.271-.082-4.702-.122-6.617 1.105a9.698 9.698 0 0 0-2.286 2.244c-1.865 2.363-3.477 5.337-2.784 8.269l.805-.315a5.3 5.3 0 0 1-.508 2.263c.113-.33.492.204.391.538l-.887 2.915c1.457-.536 3.27.548 3.492 2.088.101-3.386.451-7.268 3.191-9.25 1.381-1 3.13-1.305 4.812-1.576 1.552-.25 3.179-.488 4.666.024 1.486.512 2.752 2.036 2.415 3.575.686-.237 1.452.242 1.791.885.339.642.356 1.4.367 2.127.73.517 1.562-.51 1.86-1.356.699-1.985 1.32-4.099.943-6.17-.376-2.07-2.06-4.05-4.16-4.057.255-.28.391-.65.379-1.03l-1.731-.146c.44-.062.844-.276 1.144-.604-.695.767-6.16-1.489-7.283-1.53z" fill="#3E342B"/>
        <path d="M166.504 30.238s-4.633-4.552-6.301-4.273c-1.667.279-3.944 4.273-3.944 4.273s-13.659 4.564-13.09 9.128c.569 4.564 6.83 26.814 6.83 26.814s5.122 26.814.569 29.667c-4.553 2.853 21.627 10.269 22.196 6.846.569-3.423 1.708-37.654 0-42.789-1.707-5.134-6.26-29.667-6.26-29.667zM186.423 39.366h7.038s4.914 21.68 5.483 23.962c.57 2.281 1.708 13.121 1.139 13.121s-11.952-2.282-11.952-.57l-1.708-36.513z" fill="#343434"/>
        <path d="M186.185 93.052h-26.941c-2.629-12.124-2.848-23.837 0-35.028h26.941c-4.347 10.99-4.619 22.623 0 35.028z" fill="#F2F2F2"/>
        <path d="m148.292 78.161 7.967 3.423s15.367 2.282 15.367-3.993c0-6.276-15.367-2.853-15.367-2.853l-5.122-1.642-2.845 5.065z" fill="#E4C09E"/>
        <path d="m149.999 35.943-6.83 1.711-5.122 30.238s-1.707 7.987 1.138 8.557c2.846.57 10.814 5.135 10.814 5.135s1.138-8.558 3.415-8.558l-5.692-4.564 3.415-19.968-1.138-12.551z" fill="#343434"/>
    </g>
    <defs>
        <clipPath id="32eogn7s9a">
            <path fill="#fff" d="M0 0h239v200H0z"/>
        </clipPath>
    </defs>
</svg>
